<?xml version="1.0" encoding="UTF-8"?>
<!-- Generator: Adobe Illustrator 24.0.1, SVG Export Plug-In . SVG Version: 6.00 Build 0)  -->
<svg version="1.1" id="Layer_1" xmlns="http://www.w3.org/2000/svg" xmlns:xlink="http://www.w3.org/1999/xlink" x="0px" y="0px" viewBox="0 0 521 147" style="enable-background:new 0 0 521 147;" xml:space="preserve">
<style type="text/css">
	.st0{fill:url(#XMLID_4_);}
	.st1{fill:url(#XMLID_5_);}
	.st2{fill:url(#XMLID_6_);}
	.st3{fill:url(#XMLID_7_);}
	.st4{fill:#FFFFFF;}
</style>
<g id="XMLID_3_">
	<g id="XMLID_16_">
		<g id="XMLID_17_">
			<g id="XMLID_18_">
				
					<linearGradient id="XMLID_4_" gradientUnits="userSpaceOnUse" x1="28.1924" y1="115.6994" x2="182.7031" y2="127.7208" gradientTransform="matrix(1 0 0 -1 0 148)">
					<stop offset="0" style="stop-color:#0286FE"/>
					<stop offset="1" style="stop-color:#0EFFFF"/>
				</linearGradient>
				<polygon id="XMLID_22_" class="st0" points="65.1,39.3 65.1,4.6 35,21.9 35.1,21.9 35.1,21.9 35,21.9 5,39.3 35,56.6 64.8,39.5       64.8,39.5 64.8,39.5 65.1,39.3 64.8,39.1 64.8,39.1     "/>
				
					<linearGradient id="XMLID_5_" gradientUnits="userSpaceOnUse" x1="11.0947" y1="51.2968" x2="158.5163" y2="84.2403" gradientTransform="matrix(1 0 0 -1 0 148)">
					<stop offset="0" style="stop-color:#0261D7"/>
					<stop offset="1" style="stop-color:#0EFFFF"/>
				</linearGradient>
				<polygon id="XMLID_21_" class="st1" points="65.1,108.7 35,91.4 35,91.4 35,91.4 35,56.6 35,56.6 35,56.6 35,56.6 35,56.6       5,39.3 5,74 5,74 5,74 5,74 5,74 5,74 5,108.7 5,108.7 35,126.1 35,126.1 65.1,143.4     "/>
				
					<linearGradient id="XMLID_6_" gradientUnits="userSpaceOnUse" x1="214.2527" y1="83.6068" x2="-105.5674" y2="80.6659" gradientTransform="matrix(1 0 0 -1 0 148)">
					<stop offset="0" style="stop-color:#0EFFFF"/>
					<stop offset="0.131" style="stop-color:#0DF7FF"/>
					<stop offset="0.333" style="stop-color:#0BE1FF"/>
					<stop offset="0.5808" style="stop-color:#08BEFF"/>
					<stop offset="0.8624" style="stop-color:#048DFE"/>
					<stop offset="1" style="stop-color:#0273FE"/>
				</linearGradient>
				<polygon id="XMLID_20_" class="st2" points="125.2,74 125.2,39.3 125.2,39.3 125.2,39.3 95.2,56.7 95.2,56.7 65.1,74 95.2,91.4       125.2,74 125.2,74     "/>
				
					<linearGradient id="XMLID_7_" gradientUnits="userSpaceOnUse" x1="217.692" y1="32.0257" x2="5.1358" y2="165.0218" gradientTransform="matrix(1 0 0 -1 0 148)">
					<stop offset="0" style="stop-color:#0EFFFF"/>
					<stop offset="0.1365" style="stop-color:#0DF7FF"/>
					<stop offset="0.3471" style="stop-color:#0BE1FF"/>
					<stop offset="0.6054" style="stop-color:#08BEFF"/>
					<stop offset="0.899" style="stop-color:#048DFE"/>
					<stop offset="1" style="stop-color:#027BFE"/>
				</linearGradient>
				<polygon id="XMLID_19_" class="st3" points="125.2,39.3 95.2,21.9 95.2,21.9 65.1,4.6 65.1,39.3 65.1,39.3 65.1,39.3 65.1,39.3       65.1,39.3 95.2,56.6     "/>
			</g>
		</g>
	</g>
	<g id="XMLID_1_">
		<polygon id="XMLID_11_" class="st4" points="444.8,123.4 466.5,123.4 466.5,80.7 494.8,123.4 494.8,123.4 515,123.4 515,39.4     493.8,39.4 493.8,83.7 464.4,39.4 464.4,39.4 464.4,39.4 444.8,39.4   "/>
		<path id="XMLID_28_" class="st4" d="M371.8,123.4l5.2-14.3h31.4l5.2,14.3h22.5l-30.5-84h-25.8l-30.5,84H371.8z M382.1,91.1    l10.7-30.6l10.7,30.6H382.1z"/>
		<polygon id="XMLID_15_" class="st4" points="213.9,72.9 175.4,72.9 175.4,57.4 217.4,57.3 217.4,39.4 153.7,39.4 153.7,123.4     217.4,123.4 217.4,105.4 175.4,105.4 175.4,89.9 213.9,89.9   "/>
		<polygon id="XMLID_12_" class="st4" points="231.8,123.4 253.4,123.4 253.4,80.7 281.7,123.4 281.7,123.4 302,123.4 302,39.4     280.7,39.4 280.7,83.7 251.3,39.4 251.3,39.4 251.3,39.4 231.8,39.4   "/>
		<rect id="XMLID_32_" x="317.3" y="39.4" class="st4" width="23.2" height="84"/>
	</g>
</g>
</svg>